<svg width="1600" height="900" viewBox="0 0 1600 900" fill="none" xmlns="http://www.w3.org/2000/svg">
  <rect width="1600" height="900" fill="#08111F"/>
  <rect x="80" y="80" width="1440" height="740" rx="36" fill="url(#panel)" stroke="rgba(255,255,255,0.08)"/>
  <circle cx="1270" cy="170" r="220" fill="#2563EB" fill-opacity="0.18"/>
  <circle cx="1380" cy="240" r="140" fill="#60A5FA" fill-opacity="0.14"/>
  <circle cx="200" cy="760" r="180" fill="#1D4ED8" fill-opacity="0.14"/>

  <text x="150" y="220" fill="#93C5FD" font-size="28" font-family="Arial, Helvetica, sans-serif">中文开发者的 Hermes Agent 实战入口</text>
  <text x="150" y="320" fill="#F8FAFC" font-size="84" font-weight="700" font-family="Arial, Helvetica, sans-serif">Hermes Agent</text>
  <text x="150" y="405" fill="#F8FAFC" font-size="84" font-weight="700" font-family="Arial, Helvetica, sans-serif">中文指南</text>
  <text x="150" y="490" fill="#CBD5E1" font-size="30" font-family="Arial, Helvetica, sans-serif">快速开始 · 模型接入 · Starter 模板 · 示例项目 · 常见问题</text>

  <rect x="150" y="560" width="236" height="68" rx="18" fill="#2563EB"/>
  <text x="190" y="604" fill="#FFFFFF" font-size="28" font-weight="700" font-family="Arial, Helvetica, sans-serif">快速开始</text>

  <rect x="410" y="560" width="250" height="68" rx="18" fill="#0F172A" stroke="#334155"/>
  <text x="450" y="604" fill="#E2E8F0" font-size="28" font-weight="700" font-family="Arial, Helvetica, sans-serif">查看模板</text>

  <g transform="translate(1040 340)">
    <rect width="330" height="260" rx="28" fill="#0F172A" stroke="#334155"/>
    <rect x="28" y="34" width="110" height="110" rx="28" fill="#172554"/>
    <path d="M83 56C56.49 56 35 77.49 35 104V110C35 116.627 40.3726 122 47 122H119C125.627 122 131 116.627 131 110V104C131 77.49 109.51 56 83 56Z" fill="#E8F0FF"/>
    <path d="M49 118H117V128C117 150.091 99.0914 168 77 168H89C66.9086 168 49 150.091 49 128V118Z" fill="#D7E6FF"/>
    <circle cx="67" cy="105" r="7" fill="#3B82F6"/>
    <circle cx="99" cy="105" r="7" fill="#3B82F6"/>
    <path d="M70 142C70 131.507 78.5066 123 89 123C99.4934 123 108 131.507 108 142H70Z" fill="#3B82F6"/>
    <text x="28" y="196" fill="#F8FAFC" font-size="28" font-weight="700" font-family="Arial, Helvetica, sans-serif">Repo-Ready</text>
    <text x="28" y="228" fill="#94A3B8" font-size="20" font-family="Arial, Helvetica, sans-serif">适合对外展示的中文入口</text>
  </g>

  <defs>
    <linearGradient id="panel" x1="80" y1="80" x2="1520" y2="820" gradientUnits="userSpaceOnUse">
      <stop stop-color="#0F172A"/>
      <stop offset="1" stop-color="#111827"/>
    </linearGradient>
  </defs>
</svg>
