<svg width="1600" height="900" viewBox="0 0 1600 900" fill="none" xmlns="http://www.w3.org/2000/svg">
  <defs>
    <linearGradient id="bg" x1="120" y1="60" x2="1480" y2="840" gradientUnits="userSpaceOnUse">
      <stop stop-color="#07141C"/>
      <stop offset="1" stop-color="#0C1B24"/>
    </linearGradient>
    <linearGradient id="panel" x1="0" y1="0" x2="1" y2="1">
      <stop stop-color="#10242F"/>
      <stop offset="1" stop-color="#0B171F"/>
    </linearGradient>
    <linearGradient id="mint" x1="0" y1="0" x2="1" y2="1">
      <stop stop-color="#4AF0B9"/>
      <stop offset="1" stop-color="#1CCF92"/>
    </linearGradient>
    <filter id="softGlow" x="-50%" y="-50%" width="200%" height="200%">
      <feGaussianBlur stdDeviation="24" result="blur"/>
      <feMerge>
        <feMergeNode in="blur"/>
        <feMergeNode in="SourceGraphic"/>
      </feMerge>
    </filter>
  </defs>

  <rect width="1600" height="900" fill="#050C12"/>
  <rect x="46" y="46" width="1508" height="808" rx="36" fill="url(#bg)" stroke="#16323F"/>

  <g opacity="0.09" stroke="#7CECC9">
    <path d="M120 160H1480"/>
    <path d="M120 260H1480"/>
    <path d="M120 360H1480"/>
    <path d="M120 460H1480"/>
    <path d="M120 560H1480"/>
    <path d="M120 660H1480"/>
    <path d="M120 760H1480"/>
    <path d="M220 100V800"/>
    <path d="M420 100V800"/>
    <path d="M620 100V800"/>
    <path d="M820 100V800"/>
    <path d="M1020 100V800"/>
    <path d="M1220 100V800"/>
    <path d="M1420 100V800"/>
  </g>

  <g filter="url(#softGlow)">
    <path d="M190 635C300 580 394 560 520 575C640 590 720 650 840 646C961 642 1038 569 1160 567C1276 565 1360 604 1420 636" stroke="url(#mint)" stroke-width="8" stroke-linecap="round"/>
  </g>

  <text x="130" y="132" fill="#F0FFF8" font-size="58" font-family="Arial, PingFang SC, Microsoft YaHei, sans-serif" font-weight="700">Hermes 学习路径</text>
  <text x="130" y="184" fill="#9FCABB" font-size="26" font-family="Arial, PingFang SC, Microsoft YaHei, sans-serif">从第一次跑通，到真正搭起自己的 AI 工作流</text>

  <g>
    <rect x="130" y="290" width="300" height="230" rx="30" fill="url(#panel)" stroke="#294858"/>
    <rect x="154" y="312" width="108" height="34" rx="17" fill="#0F2B25" stroke="#2CE0A4"/>
    <text x="176" y="336" fill="#73F4C5" font-size="18" font-family="Arial, PingFang SC, Microsoft YaHei, sans-serif" font-weight="700">第一阶段</text>
    <text x="154" y="394" fill="#F4FFFB" font-size="40" font-family="Arial, PingFang SC, Microsoft YaHei, sans-serif" font-weight="700">先跑起来</text>
    <text x="154" y="444" fill="#B9D6CD" font-size="23" font-family="Arial, PingFang SC, Microsoft YaHei, sans-serif">准备环境、进入终端</text>
    <text x="154" y="478" fill="#B9D6CD" font-size="23" font-family="Arial, PingFang SC, Microsoft YaHei, sans-serif">安装 Hermes、第一次互动</text>
  </g>

  <g>
    <rect x="470" y="250" width="300" height="250" rx="30" fill="url(#panel)" stroke="#294858"/>
    <rect x="494" y="272" width="108" height="34" rx="17" fill="#0F2B25" stroke="#2CE0A4"/>
    <text x="516" y="296" fill="#73F4C5" font-size="18" font-family="Arial, PingFang SC, Microsoft YaHei, sans-serif" font-weight="700">第二阶段</text>
    <text x="494" y="356" fill="#F4FFFB" font-size="40" font-family="Arial, PingFang SC, Microsoft YaHei, sans-serif" font-weight="700">开始上手</text>
    <text x="494" y="406" fill="#B9D6CD" font-size="23" font-family="Arial, PingFang SC, Microsoft YaHei, sans-serif">日常使用、会话管理</text>
    <text x="494" y="440" fill="#B9D6CD" font-size="23" font-family="Arial, PingFang SC, Microsoft YaHei, sans-serif">常用命令、精选 Skills</text>
  </g>

  <g>
    <rect x="810" y="290" width="300" height="230" rx="30" fill="url(#panel)" stroke="#294858"/>
    <rect x="834" y="312" width="108" height="34" rx="17" fill="#0F2B25" stroke="#2CE0A4"/>
    <text x="856" y="336" fill="#73F4C5" font-size="18" font-family="Arial, PingFang SC, Microsoft YaHei, sans-serif" font-weight="700">第三阶段</text>
    <text x="834" y="394" fill="#F4FFFB" font-size="40" font-family="Arial, PingFang SC, Microsoft YaHei, sans-serif" font-weight="700">玩出花样</text>
    <text x="834" y="444" fill="#B9D6CD" font-size="23" font-family="Arial, PingFang SC, Microsoft YaHei, sans-serif">人格、记忆、模型</text>
    <text x="834" y="478" fill="#B9D6CD" font-size="23" font-family="Arial, PingFang SC, Microsoft YaHei, sans-serif">工具开关、终端主题</text>
  </g>

  <g>
    <rect x="1150" y="250" width="300" height="250" rx="30" fill="url(#panel)" stroke="#294858"/>
    <rect x="1174" y="272" width="108" height="34" rx="17" fill="#0F2B25" stroke="#2CE0A4"/>
    <text x="1196" y="296" fill="#73F4C5" font-size="18" font-family="Arial, PingFang SC, Microsoft YaHei, sans-serif" font-weight="700">第四阶段</text>
    <text x="1174" y="356" fill="#F4FFFB" font-size="40" font-family="Arial, PingFang SC, Microsoft YaHei, sans-serif" font-weight="700">自己造东西</text>
    <text x="1174" y="406" fill="#B9D6CD" font-size="23" font-family="Arial, PingFang SC, Microsoft YaHei, sans-serif">Profiles、外部记忆</text>
    <text x="1174" y="440" fill="#B9D6CD" font-size="23" font-family="Arial, PingFang SC, Microsoft YaHei, sans-serif">MCP、API、自动化、IDE</text>
  </g>

  <g>
    <circle cx="210" cy="624" r="11" fill="#2CE0A4"/>
    <circle cx="550" cy="589" r="11" fill="#2CE0A4"/>
    <circle cx="890" cy="616" r="11" fill="#2CE0A4"/>
    <circle cx="1230" cy="591" r="11" fill="#2CE0A4"/>
  </g>

  <g fill="#D6FFF0" font-size="24" font-family="Arial, PingFang SC, Microsoft YaHei, sans-serif" font-weight="700">
    <text x="180" y="690">跑通</text>
    <text x="518" y="690">上手</text>
    <text x="858" y="690">进阶</text>
    <text x="1192" y="690">系统化</text>
  </g>

  <text x="130" y="788" fill="#8AB7AA" font-size="23" font-family="Arial, PingFang SC, Microsoft YaHei, sans-serif">建议阅读顺序：先跑起来 → 开始上手 → 玩出花样 → 自己造东西</text>
</svg>