<svg width="1600" height="900" viewBox="0 0 1600 900" fill="none" xmlns="http://www.w3.org/2000/svg">
  <defs>
    <linearGradient id="bg" x1="60" y1="58" x2="1540" y2="842" gradientUnits="userSpaceOnUse">
      <stop stop-color="#061317"/>
      <stop offset="1" stop-color="#0B1B20"/>
    </linearGradient>
    <linearGradient id="panel" x1="0" y1="0" x2="1" y2="1">
      <stop stop-color="#11242D"/>
      <stop offset="1" stop-color="#0B171F"/>
    </linearGradient>
  </defs>

  <rect width="1600" height="900" fill="#041015"/>
  <rect x="60" y="58" width="1480" height="784" rx="28" fill="url(#bg)" stroke="#173942" stroke-width="2"/>

  <text x="800" y="146" text-anchor="middle" fill="#F7FFF9" font-size="56" font-family="Arial, PingFang SC, Microsoft YaHei, sans-serif" font-weight="700">Hermes Agent：从快速起步到自主构建</text>
  <text x="800" y="194" text-anchor="middle" fill="#C7E6DB" font-size="24" font-family="Arial, PingFang SC, Microsoft YaHei, sans-serif">按四个阶段找到你的入口，而不是从头翻完整个文档库。</text>

  <!-- arrows on dark bg: use bright light lines for visibility -->
  <g stroke="#F4FFF9" stroke-width="5" stroke-linecap="round" stroke-linejoin="round">
    <path d="M308 386H452"/>
    <path d="M432 370L452 386L432 402"/>
    <path d="M676 386H820"/>
    <path d="M800 370L820 386L800 402"/>
    <path d="M1044 386H1188"/>
    <path d="M1168 370L1188 386L1168 402"/>
  </g>

  <!-- stage 1: outer support on dark bg uses light line, inner details on white use dark blue -->
  <g>
    <rect x="150" y="304" width="88" height="62" rx="12" fill="#FFFDF8" stroke="#D9EFF7" stroke-width="4.5"/>
    <path d="M150 338H238" stroke="#173B63" stroke-width="5"/>
    <path d="M168 322H186" stroke="#1CCF92" stroke-width="6" stroke-linecap="round"/>
    <path d="M196 322H214" stroke="#1CCF92" stroke-width="6" stroke-linecap="round"/>
    <path d="M180 386L168 418" stroke="#F4FFF9" stroke-width="5"/>
    <path d="M208 386L220 418" stroke="#F4FFF9" stroke-width="5"/>
    <path d="M156 420H232" stroke="#F4FFF9" stroke-width="5"/>
    <path d="M198 348L212 334" stroke="#F08A24" stroke-width="7"/>
    <path d="M212 334L222 344" stroke="#F08A24" stroke-width="7"/>
  </g>

  <!-- stage 2: all white object internals use dark blue consistently -->
  <g>
    <circle cx="564" cy="334" r="66" fill="#FFFDF8" stroke="#D9EFF7" stroke-width="4.5"/>
    <path d="M532 316C542 304 558 296 576 296C598 296 616 308 624 326" stroke="#173B63" stroke-width="5"/>
    <path d="M520 356C534 370 552 378 572 378C594 378 612 368 626 352" stroke="#173B63" stroke-width="5"/>
    <path d="M546 326H586" stroke="#173B63" stroke-width="5"/>
    <path d="M546 346H598" stroke="#173B63" stroke-width="5"/>
    <circle cx="614" cy="288" r="16" fill="#F08A24" stroke="#173B63" stroke-width="4"/>
    <path d="M614 270V252" stroke="#F4FFF9" stroke-width="4"/>
    <path d="M604 252H624" stroke="#F4FFF9" stroke-width="4"/>
  </g>

  <!-- stage 3: keep same centerline and same blue hierarchy -->
  <g>
    <path d="M892 268C938 268 976 306 976 352C976 398 938 436 892 436C846 436 808 398 808 352C808 306 846 268 892 268Z" fill="#FFFDF8" stroke="#D9EFF7" stroke-width="4.5"/>
    <path d="M892 296C914 296 932 314 932 336C932 358 914 376 892 376C870 376 852 358 852 336C852 314 870 296 892 296Z" stroke="#173B63" stroke-width="4.5"/>
    <path d="M828 392C850 374 868 370 892 370C916 370 934 374 956 392" stroke="#173B63" stroke-width="5"/>
    <path d="M960 300L1002 278" stroke="#F08A24" stroke-width="7"/>
    <path d="M1002 278L996 296" stroke="#F08A24" stroke-width="7"/>
    <path d="M1002 278L984 272" stroke="#F08A24" stroke-width="7"/>
    <circle cx="1010" cy="272" r="11" fill="#1CCF92" stroke="#173B63" stroke-width="4"/>
  </g>

  <!-- stage 4: white device with dark blue inner lines, outer extension on dark bg uses light line -->
  <g>
    <rect x="1212" y="300" width="92" height="122" rx="18" fill="#FFFDF8" stroke="#D9EFF7" stroke-width="4.5"/>
    <path d="M1238 338H1280" stroke="#173B63" stroke-width="5" stroke-linecap="round"/>
    <path d="M1238 368H1280" stroke="#173B63" stroke-width="5" stroke-linecap="round"/>
    <path d="M1238 398H1268" stroke="#173B63" stroke-width="5" stroke-linecap="round"/>
    <path d="M1288 300L1332 256" stroke="#F4FFF9" stroke-width="5"/>
    <path d="M1332 256L1348 272" stroke="#F4FFF9" stroke-width="5"/>
    <path d="M1348 272L1304 316" stroke="#F4FFF9" stroke-width="5"/>
    <path d="M1344 244L1358 258" stroke="#F08A24" stroke-width="7"/>
    <path d="M1358 258L1390 226" stroke="#F08A24" stroke-width="7"/>
    <path d="M1376 226H1390V240" stroke="#F08A24" stroke-width="7"/>
  </g>

  <!-- labels all share one baseline -->
  <g>
    <text x="194" y="506" text-anchor="middle" fill="#F7FFF9" font-size="36" font-family="Arial, PingFang SC, Microsoft YaHei, sans-serif" font-weight="700">01-先跑起来</text>
    <path d="M90 536H298" stroke="#31525C" stroke-width="2.5"/>
    <text x="194" y="580" text-anchor="middle" fill="#D0DFE1" font-size="24" font-family="Arial, PingFang SC, Microsoft YaHei, sans-serif">环境、终端、安装</text>
    <text x="194" y="618" text-anchor="middle" fill="#A3C7BA" font-size="22" font-family="Arial, PingFang SC, Microsoft YaHei, sans-serif">完成第一次互动</text>
  </g>

  <g>
    <text x="564" y="506" text-anchor="middle" fill="#F7FFF9" font-size="36" font-family="Arial, PingFang SC, Microsoft YaHei, sans-serif" font-weight="700">02-开始上手</text>
    <path d="M460 536H668" stroke="#31525C" stroke-width="2.5"/>
    <text x="564" y="580" text-anchor="middle" fill="#D0DFE1" font-size="24" font-family="Arial, PingFang SC, Microsoft YaHei, sans-serif">基本使用、会话管理</text>
    <text x="564" y="618" text-anchor="middle" fill="#A3C7BA" font-size="22" font-family="Arial, PingFang SC, Microsoft YaHei, sans-serif">命令与 Skills</text>
  </g>

  <g>
    <text x="892" y="506" text-anchor="middle" fill="#F7FFF9" font-size="36" font-family="Arial, PingFang SC, Microsoft YaHei, sans-serif" font-weight="700">03-玩出花样</text>
    <path d="M788 536H996" stroke="#31525C" stroke-width="2.5"/>
    <text x="892" y="580" text-anchor="middle" fill="#D0DFE1" font-size="24" font-family="Arial, PingFang SC, Microsoft YaHei, sans-serif">人格、记忆、模型</text>
    <text x="892" y="618" text-anchor="middle" fill="#A3C7BA" font-size="22" font-family="Arial, PingFang SC, Microsoft YaHei, sans-serif">定制你的工作流</text>
  </g>

  <g>
    <text x="1258" y="506" text-anchor="middle" fill="#F7FFF9" font-size="36" font-family="Arial, PingFang SC, Microsoft YaHei, sans-serif" font-weight="700">04-自己造东西</text>
    <path d="M1154 536H1362" stroke="#31525C" stroke-width="2.5"/>
    <text x="1258" y="580" text-anchor="middle" fill="#D0DFE1" font-size="24" font-family="Arial, PingFang SC, Microsoft YaHei, sans-serif">Profiles、MCP、API</text>
    <text x="1258" y="618" text-anchor="middle" fill="#A3C7BA" font-size="22" font-family="Arial, PingFang SC, Microsoft YaHei, sans-serif">自动化与 IDE</text>
  </g>

  <text x="800" y="730" text-anchor="middle" fill="#A3C7BA" font-size="22" font-family="Arial, PingFang SC, Microsoft YaHei, sans-serif">四个阶段，分别解决：跑通、上手、定制、构建。</text>
</svg>